<svg width="32" height="33" viewBox="0 0 32 33" fill="none" xmlns="http://www.w3.org/2000/svg">
<rect y="0.668945" width="32" height="32" rx="16" fill="black"/>
<path d="M24.25 16.6689V23.0856C24.25 23.5718 24.0568 24.0382 23.713 24.382C23.3692 24.7258 22.9029 24.9189 22.4167 24.9189H9.58333C9.0971 24.9189 8.63079 24.7258 8.28697 24.382C7.94315 24.0382 7.75 23.5718 7.75 23.0856V16.6689H24.25ZM19.6667 8.41895C19.9098 8.41895 20.1429 8.51552 20.3148 8.68743C20.4868 8.85934 20.5833 9.0925 20.5833 9.33561V10.2523H22.4167C22.9029 10.2523 23.3692 10.4454 23.713 10.7892C24.0568 11.1331 24.25 11.5994 24.25 12.0856V14.8356H7.75V12.0856C7.75 11.5994 7.94315 11.1331 8.28697 10.7892C8.63079 10.4454 9.0971 10.2523 9.58333 10.2523H11.4167V9.33561C11.4167 9.0925 11.5132 8.85934 11.6852 8.68743C11.8571 8.51552 12.0902 8.41895 12.3333 8.41895C12.5764 8.41895 12.8096 8.51552 12.9815 8.68743C13.1534 8.85934 13.25 9.0925 13.25 9.33561V10.2523H18.75V9.33561C18.75 9.0925 18.8466 8.85934 19.0185 8.68743C19.1904 8.51552 19.4236 8.41895 19.6667 8.41895Z" fill="white"/>
</svg>
