<svg width="32" height="33" viewBox="0 0 32 33" fill="none" xmlns="http://www.w3.org/2000/svg">
<rect y="0.668945" width="32" height="32" rx="16" fill="white"/>
<path d="M6.22615 15.6023L18.1395 10.6939C19.3155 10.1826 23.3036 8.54639 23.3036 8.54639C23.3036 8.54639 25.1443 7.83056 24.9909 9.56899C24.9398 10.2848 24.5307 12.7902 24.1217 15.5001L22.8435 23.5275C22.8435 23.5275 22.7412 24.7035 21.872 24.908C21.0028 25.1126 19.5711 24.1922 19.3155 23.9877C19.111 23.8343 15.4807 21.5334 14.1513 20.4086C13.7934 20.1018 13.3844 19.4882 14.2025 18.7724C16.0431 17.0851 18.2417 14.9888 19.5711 13.6594C20.1847 13.0458 20.7982 11.6142 18.2417 13.3526L11.0324 18.21C11.0324 18.21 10.2143 18.7213 8.6804 18.2611C7.14649 17.8009 5.35694 17.1874 5.35694 17.1874C5.35694 17.1874 4.12981 16.4204 6.22615 15.6023Z" fill="black"/>
</svg>
