<svg width="24" height="24" viewBox="0 0 24 24" fill="none" xmlns="http://www.w3.org/2000/svg">
<rect width="24" height="24" rx="12" fill="black"/>
<g clip-path="url(#clip0_54164_47)">
<path d="M17.5558 14.7333V16.3999C17.5564 16.5547 17.5247 16.7078 17.4627 16.8496C17.4008 16.9913 17.3098 17.1186 17.1958 17.2232C17.0818 17.3278 16.9472 17.4074 16.8007 17.457C16.6541 17.5066 16.4988 17.525 16.3447 17.5111C14.6351 17.3253 12.993 16.7411 11.5502 15.8055C10.2079 14.9525 9.06987 13.8145 8.2169 12.4722C7.278 11.0228 6.6937 9.37272 6.51135 7.6555C6.49746 7.50187 6.51572 7.34703 6.56496 7.20085C6.61419 7.05466 6.69333 6.92033 6.79733 6.8064C6.90132 6.69247 7.0279 6.60145 7.16901 6.53912C7.31011 6.4768 7.46265 6.44454 7.6169 6.44439H9.28357C9.55318 6.44174 9.81456 6.53721 10.019 6.71302C10.2234 6.88883 10.3569 7.13297 10.3947 7.39995C10.465 7.93332 10.5955 8.45702 10.7836 8.96106C10.8583 9.1599 10.8745 9.37601 10.8302 9.58377C10.7859 9.79153 10.6829 9.98223 10.5336 10.1333L9.82801 10.8388C10.6189 12.2297 11.7705 13.3813 13.1613 14.1722L13.8669 13.4666C14.018 13.3172 14.2087 13.2143 14.4164 13.17C14.6242 13.1257 14.8403 13.1419 15.0391 13.2166C15.5432 13.4047 16.0669 13.5352 16.6002 13.6055C16.8701 13.6436 17.1166 13.7795 17.2928 13.9874C17.4689 14.1954 17.5626 14.4608 17.5558 14.7333Z" stroke="white" stroke-width="1.11111" stroke-linecap="round" stroke-linejoin="round"/>
</g>
<defs>
<clipPath id="clip0_54164_47">
<rect width="13.3333" height="13.3333" fill="white" transform="translate(5.3335 5.33325)"/>
</clipPath>
</defs>
</svg>
