<svg width="24" height="25" viewBox="0 0 24 25" fill="none" xmlns="http://www.w3.org/2000/svg">
<circle cx="12" cy="12.0723" r="12" fill="black"/>
<path d="M8.67997 8.85897C9.37049 8.85897 9.93026 8.2992 9.93026 7.60868C9.93026 6.91817 9.37049 6.3584 8.67997 6.3584C7.98946 6.3584 7.42969 6.91817 7.42969 7.60868C7.42969 8.2992 7.98946 8.85897 8.67997 8.85897Z" fill="white"/>
<path d="M11.1113 9.80619V16.7428H13.265V13.3125C13.265 12.4073 13.4353 11.5308 14.5576 11.5308C15.6644 11.5308 15.6781 12.5656 15.6781 13.3696V16.7433H17.833V12.9393C17.833 11.0708 17.4307 9.63477 15.2467 9.63477C14.1981 9.63477 13.4953 10.2102 13.2078 10.7548H13.1787V9.80619H11.1113ZM7.60156 9.80619H9.75871V16.7428H7.60156V9.80619Z" fill="white"/>
</svg>
