<svg width="24" height="25" viewBox="0 0 24 25" fill="none" xmlns="http://www.w3.org/2000/svg">
<circle cx="12" cy="12.0723" r="12" fill="black"/>
<g clip-path="url(#clip0_165_4520)">
<path d="M12 7.15273C13.6031 7.15273 13.793 7.15977 14.4234 7.18789C15.0094 7.21367 15.3258 7.31211 15.5367 7.39414C15.8156 7.50195 16.0172 7.6332 16.2258 7.8418C16.4367 8.05273 16.5656 8.25195 16.6734 8.53086C16.7555 8.7418 16.8539 9.06055 16.8797 9.64414C16.9078 10.277 16.9148 10.4668 16.9148 12.0676C16.9148 13.6707 16.9078 13.8605 16.8797 14.491C16.8539 15.077 16.7555 15.3934 16.6734 15.6043C16.5656 15.8832 16.4344 16.0848 16.2258 16.2934C16.0148 16.5043 15.8156 16.6332 15.5367 16.741C15.3258 16.823 15.007 16.9215 14.4234 16.9473C13.7906 16.9754 13.6008 16.9824 12 16.9824C10.3969 16.9824 10.207 16.9754 9.57656 16.9473C8.99063 16.9215 8.67422 16.823 8.46328 16.741C8.18438 16.6332 7.98281 16.502 7.77422 16.2934C7.56328 16.0824 7.43438 15.8832 7.32656 15.6043C7.24453 15.3934 7.14609 15.0746 7.12031 14.491C7.09219 13.8582 7.08516 13.6684 7.08516 12.0676C7.08516 10.4645 7.09219 10.2746 7.12031 9.64414C7.14609 9.0582 7.24453 8.7418 7.32656 8.53086C7.43438 8.25195 7.56563 8.05039 7.77422 7.8418C7.98516 7.63086 8.18438 7.50195 8.46328 7.39414C8.67422 7.31211 8.99297 7.21367 9.57656 7.18789C10.207 7.15977 10.3969 7.15273 12 7.15273ZM12 6.07227C10.3711 6.07227 10.1672 6.0793 9.52734 6.10742C8.88984 6.13555 8.45156 6.23867 8.07188 6.38633C7.67578 6.54102 7.34063 6.74492 7.00781 7.08008C6.67266 7.41289 6.46875 7.74805 6.31406 8.1418C6.16641 8.52383 6.06328 8.95977 6.03516 9.59727C6.00703 10.2395 6 10.4434 6 12.0723C6 13.7012 6.00703 13.9051 6.03516 14.5449C6.06328 15.1824 6.16641 15.6207 6.31406 16.0004C6.46875 16.3965 6.67266 16.7316 7.00781 17.0645C7.34063 17.3973 7.67578 17.6035 8.06953 17.7559C8.45156 17.9035 8.8875 18.0066 9.525 18.0348C10.1648 18.0629 10.3688 18.0699 11.9977 18.0699C13.6266 18.0699 13.8305 18.0629 14.4703 18.0348C15.1078 18.0066 15.5461 17.9035 15.9258 17.7559C16.3195 17.6035 16.6547 17.3973 16.9875 17.0645C17.3203 16.7316 17.5266 16.3965 17.6789 16.0027C17.8266 15.6207 17.9297 15.1848 17.9578 14.5473C17.9859 13.9074 17.993 13.7035 17.993 12.0746C17.993 10.4457 17.9859 10.2418 17.9578 9.60195C17.9297 8.96445 17.8266 8.52617 17.6789 8.14648C17.5312 7.74805 17.3273 7.41289 16.9922 7.08008C16.6594 6.74727 16.3242 6.54102 15.9305 6.38867C15.5484 6.24102 15.1125 6.13789 14.475 6.10977C13.8328 6.0793 13.6289 6.07227 12 6.07227Z" fill="white"/>
<path d="M12 8.99023C10.2984 8.99023 8.91797 10.3707 8.91797 12.0723C8.91797 13.7738 10.2984 15.1543 12 15.1543C13.7016 15.1543 15.082 13.7738 15.082 12.0723C15.082 10.3707 13.7016 8.99023 12 8.99023ZM12 14.0715C10.8961 14.0715 10.0008 13.1762 10.0008 12.0723C10.0008 10.9684 10.8961 10.073 12 10.073C13.1039 10.073 13.9992 10.9684 13.9992 12.0723C13.9992 13.1762 13.1039 14.0715 12 14.0715Z" fill="white"/>
<path d="M15.9234 8.86797C15.9234 9.26641 15.6 9.5875 15.2039 9.5875C14.8055 9.5875 14.4844 9.26406 14.4844 8.86797C14.4844 8.46953 14.8078 8.14844 15.2039 8.14844C15.6 8.14844 15.9234 8.47188 15.9234 8.86797Z" fill="white"/>
</g>
<defs>
<clipPath id="clip0_165_4520">
<rect width="12" height="12" fill="white" transform="translate(6 6.07227)"/>
</clipPath>
</defs>
</svg>
