<svg width="28" height="29" viewBox="0 0 28 29" fill="none" xmlns="http://www.w3.org/2000/svg">
<path fill-rule="evenodd" clip-rule="evenodd" d="M4.08268 5.85913C3.77326 5.85913 3.47652 5.98205 3.25772 6.20084C3.03893 6.41963 2.91602 6.71638 2.91602 7.0258C2.91602 7.33522 3.03893 7.63196 3.25772 7.85076C3.47652 8.06955 3.77326 8.19246 4.08268 8.19246H23.916C24.2254 8.19246 24.5222 8.06955 24.741 7.85076C24.9598 7.63196 25.0827 7.33522 25.0827 7.0258C25.0827 6.71638 24.9598 6.41963 24.741 6.20084C24.5222 5.98205 24.2254 5.85913 23.916 5.85913H4.08268ZM2.91602 14.0258C2.91602 13.7164 3.03893 13.4196 3.25772 13.2008C3.47652 12.982 3.77326 12.8591 4.08268 12.8591H18.0827C18.3921 12.8591 18.6888 12.982 18.9076 13.2008C19.1264 13.4196 19.2493 13.7164 19.2493 14.0258C19.2493 14.3352 19.1264 14.632 18.9076 14.8508C18.6888 15.0695 18.3921 15.1925 18.0827 15.1925H4.08268C3.77326 15.1925 3.47652 15.0695 3.25772 14.8508C3.03893 14.632 2.91602 14.3352 2.91602 14.0258ZM2.91602 21.027C2.91602 20.7175 3.03893 20.4208 3.25772 20.202C3.47652 19.9832 3.77326 19.8603 4.08268 19.8603H12.2493C12.5588 19.8603 12.8555 19.9832 13.0743 20.202C13.2931 20.4208 13.416 20.7175 13.416 21.027C13.416 21.3364 13.2931 21.6331 13.0743 21.8519C12.8555 22.0707 12.5588 22.1936 12.2493 22.1936H4.08268C3.77326 22.1936 3.47652 22.0707 3.25772 21.8519C3.03893 21.6331 2.91602 21.3364 2.91602 21.027Z" fill="white"/>
</svg>
