<svg width="16" height="16" viewBox="0 0 16 16" fill="none" xmlns="http://www.w3.org/2000/svg">
<g clip-path="url(#clip0_163_4237)">
<path d="M14.4822 11.2146V13.1591C14.483 13.3396 14.446 13.5183 14.3737 13.6836C14.3014 13.849 14.1953 13.9975 14.0623 14.1195C13.9293 14.2416 13.7722 14.3345 13.6012 14.3923C13.4302 14.4501 13.2491 14.4716 13.0693 14.4554C11.0748 14.2386 9.159 13.5571 7.47576 12.4655C5.90972 11.4704 4.582 10.1427 3.58687 8.57666C2.49149 6.88577 1.80981 4.96064 1.59706 2.95722C1.58086 2.77798 1.60216 2.59734 1.6596 2.42679C1.71705 2.25624 1.80937 2.09951 1.9307 1.9666C2.05203 1.83368 2.19971 1.72749 2.36433 1.65478C2.52895 1.58206 2.70691 1.54442 2.88687 1.54425H4.83132C5.14587 1.54116 5.45081 1.65254 5.68931 1.85765C5.92781 2.06276 6.08359 2.3476 6.12761 2.65907C6.20968 3.28133 6.36189 3.89232 6.58132 4.48036C6.66852 4.71235 6.68739 4.96447 6.6357 5.20686C6.58401 5.44924 6.46391 5.67173 6.28965 5.84796L5.4665 6.6711C6.38918 8.29377 7.73272 9.63732 9.35539 10.56L10.1785 9.73684C10.3548 9.56258 10.5772 9.44249 10.8196 9.39079C11.062 9.3391 11.3141 9.35797 11.5461 9.44518C12.1342 9.66461 12.7452 9.81681 13.3674 9.89888C13.6823 9.9433 13.9698 10.1019 14.1754 10.3445C14.3809 10.5871 14.4901 10.8968 14.4822 11.2146Z" stroke="#242424" stroke-width="1.2963" stroke-linecap="round" stroke-linejoin="round"/>
</g>
<defs>
<clipPath id="clip0_163_4237">
<rect width="15.5556" height="15.5556" fill="white" transform="translate(0.222656 0.247803)"/>
</clipPath>
</defs>
</svg>
